<svg xmlns="http://www.w3.org/2000/svg" width="400" height="360" viewBox="0 0 400 360" role="img" aria-label="Website audit illustration">
  <defs>
    <linearGradient id="g1" x1="0" y1="0" x2="1" y2="1">
      <stop stop-color="#c4b5fd"/><stop offset="1" stop-color="#a5f3fc"/>
    </linearGradient>
    <linearGradient id="g2" x1="0" y1="0" x2="0" y2="1">
      <stop stop-color="#f4f4f5"/><stop offset="1" stop-color="#e4e4e7"/>
    </linearGradient>
  </defs>
  <rect x="20" y="20" width="360" height="300" rx="16" fill="url(#g2)" stroke="#d4d4d8"/>
  <rect x="48" y="48" width="200" height="10" rx="3" fill="#a78bfa" opacity="0.6"/>
  <rect x="48" y="70" width="300" height="6" rx="2" fill="#d4d4d8"/>
  <rect x="48" y="88" width="280" height="6" rx="2" fill="#d4d4d8"/>
  <rect x="48" y="106" width="240" height="6" rx="2" fill="#d4d4d8"/>
  <rect x="48" y="140" width="100" height="100" rx="8" fill="url(#g1)" opacity="0.35"/>
  <rect x="168" y="140" width="180" height="40" rx="6" fill="white" stroke="#e4e4e7"/>
  <text x="184" y="165" font-family="ui-sans-serif" font-size="10" fill="#52525b">20-point report</text>
  <rect x="168" y="200" width="180" height="40" rx="6" fill="white" stroke="#e4e4e7"/>
  <text x="184" y="225" font-family="ui-sans-serif" font-size="10" fill="#52525b">Competitor snapshot</text>
  <circle cx="320" cy="100" r="40" fill="#7c3aed" fill-opacity="0.15" stroke="#a78bfa"/>
  <path d="M300 100 L315 115 L350 80" fill="none" stroke="#7c3aed" stroke-width="4" stroke-linecap="round" stroke-linejoin="round"/>
</svg>
