<svg width="1200" height="630" viewBox="0 0 1200 630" fill="none" xmlns="http://www.w3.org/2000/svg">
  <rect width="1200" height="630" fill="#0F172A"/>
  <defs>
    <linearGradient id="gold" x1="120" y1="90" x2="1080" y2="540" gradientUnits="userSpaceOnUse">
      <stop stop-color="#F6D365"/>
      <stop offset="1" stop-color="#C8A24B"/>
    </linearGradient>
    <linearGradient id="panel" x1="80" y1="60" x2="1120" y2="570" gradientUnits="userSpaceOnUse">
      <stop stop-color="#111827"/>
      <stop offset="1" stop-color="#1E293B"/>
    </linearGradient>
  </defs>

  <circle cx="1030" cy="110" r="155" fill="#0EA5E9" fill-opacity="0.14"/>
  <circle cx="200" cy="520" r="180" fill="#2563EB" fill-opacity="0.12"/>

  <rect x="64" y="52" width="1072" height="526" rx="34" fill="url(#panel)" stroke="#334155"/>

  <text x="98" y="128" fill="#E2E8F0" font-family="Arial, Helvetica, sans-serif" font-size="22" font-weight="700" letter-spacing="1.7">MACROLIGHT BUILDER</text>
  <text x="98" y="204" fill="white" font-family="Arial, Helvetica, sans-serif" font-size="54" font-weight="700">Google Business Profile</text>
  <text x="98" y="264" fill="url(#gold)" font-family="Arial, Helvetica, sans-serif" font-size="52" font-weight="700">optimization for voice + AI search</text>
  <text x="98" y="318" fill="#CBD5E1" font-family="Arial, Helvetica, sans-serif" font-size="24">Built around relevance, reviews, service areas, and website alignment.</text>

  <rect x="98" y="374" width="304" height="128" rx="22" fill="#0B1220" stroke="#334155"/>
  <text x="126" y="416" fill="#F8FAFC" font-family="Arial, Helvetica, sans-serif" font-size="24" font-weight="700">Relevance signals</text>
  <text x="126" y="452" fill="#94A3B8" font-family="Arial, Helvetica, sans-serif" font-size="20">Primary category, services,</text>
  <text x="126" y="480" fill="#94A3B8" font-family="Arial, Helvetica, sans-serif" font-size="20">description, and service area</text>
  <circle cx="364" cy="412" r="18" fill="#22C55E"/>
  <path d="M356 412L362 418L373 406" stroke="#0F172A" stroke-width="4" stroke-linecap="round" stroke-linejoin="round"/>

  <rect x="448" y="374" width="304" height="128" rx="22" fill="#0B1220" stroke="#334155"/>
  <text x="476" y="416" fill="#F8FAFC" font-family="Arial, Helvetica, sans-serif" font-size="24" font-weight="700">Trust signals</text>
  <text x="476" y="452" fill="#94A3B8" font-family="Arial, Helvetica, sans-serif" font-size="20">Reviews, responses, hours,</text>
  <text x="476" y="480" fill="#94A3B8" font-family="Arial, Helvetica, sans-serif" font-size="20">and proof that feels current</text>
  <circle cx="714" cy="412" r="18" fill="#22C55E"/>
  <path d="M706 412L712 418L723 406" stroke="#0F172A" stroke-width="4" stroke-linecap="round" stroke-linejoin="round"/>

  <rect x="798" y="374" width="304" height="128" rx="22" fill="#0B1220" stroke="#334155"/>
  <text x="826" y="416" fill="#F8FAFC" font-family="Arial, Helvetica, sans-serif" font-size="24" font-weight="700">Website alignment</text>
  <text x="826" y="452" fill="#94A3B8" font-family="Arial, Helvetica, sans-serif" font-size="20">City pages, FAQs, and CTAs</text>
  <text x="826" y="480" fill="#94A3B8" font-family="Arial, Helvetica, sans-serif" font-size="20">that support the profile</text>
  <circle cx="1064" cy="412" r="18" fill="#22C55E"/>
  <path d="M1056 412L1062 418L1073 406" stroke="#0F172A" stroke-width="4" stroke-linecap="round" stroke-linejoin="round"/>

  <rect x="866" y="118" width="210" height="146" rx="24" fill="#111827" stroke="#475569"/>
  <text x="892" y="160" fill="#94A3B8" font-family="Arial, Helvetica, sans-serif" font-size="20" font-weight="700">Checklist</text>
  <text x="892" y="198" fill="#F8FAFC" font-family="Arial, Helvetica, sans-serif" font-size="22">• Category fit</text>
  <text x="892" y="228" fill="#F8FAFC" font-family="Arial, Helvetica, sans-serif" font-size="22">• Review health</text>
  <text x="892" y="258" fill="#F8FAFC" font-family="Arial, Helvetica, sans-serif" font-size="22">• Site support</text>

  <text x="98" y="554" fill="#64748B" font-family="Arial, Helvetica, sans-serif" font-size="18">Original Macrolight Builder asset for blog use only</text>
</svg>
