<svg width="1200" height="630" viewBox="0 0 1200 630" fill="none" xmlns="http://www.w3.org/2000/svg" role="img" aria-label="Royal Oak web design illustration showing local map visibility, trust signals, mobile conversion, and service-page structure">
  <rect width="1200" height="630" fill="#0B1120"/>
  <defs>
    <linearGradient id="gold" x1="76" y1="76" x2="1098" y2="562" gradientUnits="userSpaceOnUse">
      <stop stop-color="#F6D365"/>
      <stop offset="1" stop-color="#C8A24B"/>
    </linearGradient>
    <linearGradient id="panel" x1="72" y1="54" x2="1118" y2="576" gradientUnits="userSpaceOnUse">
      <stop stop-color="#111827"/>
      <stop offset="1" stop-color="#172033"/>
    </linearGradient>
    <linearGradient id="cyan" x1="0" y1="0" x2="1" y2="1">
      <stop stop-color="#22D3EE"/>
      <stop offset="1" stop-color="#3B82F6"/>
    </linearGradient>
  </defs>

  <circle cx="1030" cy="118" r="148" fill="#2563EB" fill-opacity="0.16"/>
  <circle cx="174" cy="520" r="170" fill="#06B6D4" fill-opacity="0.10"/>

  <rect x="58" y="48" width="1084" height="534" rx="34" fill="url(#panel)" stroke="#334155"/>

  <text x="96" y="118" fill="#E2E8F0" font-family="Arial, Helvetica, sans-serif" font-size="22" font-weight="700" letter-spacing="1.6">MACROLIGHT BUILDER</text>
  <text x="96" y="196" fill="#FFFFFF" font-family="Arial, Helvetica, sans-serif" font-size="54" font-weight="700">Web design in Royal Oak, MI</text>
  <text x="96" y="256" fill="url(#gold)" font-family="Arial, Helvetica, sans-serif" font-size="54" font-weight="700">built to earn local leads</text>
  <text x="96" y="312" fill="#CBD5E1" font-family="Arial, Helvetica, sans-serif" font-size="24">Clear service pages, local relevance, visible reviews, and mobile-first CTAs.</text>

  <rect x="96" y="364" width="320" height="132" rx="24" fill="#0F172A" stroke="#334155"/>
  <text x="126" y="406" fill="#F8FAFC" font-family="Arial, Helvetica, sans-serif" font-size="24" font-weight="700">Local visibility</text>
  <text x="126" y="442" fill="#94A3B8" font-family="Arial, Helvetica, sans-serif" font-size="20">Royal Oak + nearby city</text>
  <text x="126" y="470" fill="#94A3B8" font-family="Arial, Helvetica, sans-serif" font-size="20">signals tied to real services</text>
  <path d="M350 398C350 378 366 362 386 362C406 362 422 378 422 398C422 430 386 446 386 446C386 446 350 430 350 398Z" fill="url(#cyan)"/>
  <circle cx="386" cy="396" r="10" fill="#FFFFFF"/>

  <rect x="440" y="364" width="320" height="132" rx="24" fill="#0F172A" stroke="#334155"/>
  <text x="470" y="406" fill="#F8FAFC" font-family="Arial, Helvetica, sans-serif" font-size="24" font-weight="700">Trust signals</text>
  <text x="470" y="442" fill="#94A3B8" font-family="Arial, Helvetica, sans-serif" font-size="20">Reviews, proof, guarantees,</text>
  <text x="470" y="470" fill="#94A3B8" font-family="Arial, Helvetica, sans-serif" font-size="20">and clear differentiation</text>
  <circle cx="706" cy="398" r="18" fill="#22C55E"/>
  <path d="M698 398L704 404L715 392" stroke="#0F172A" stroke-width="4" stroke-linecap="round" stroke-linejoin="round"/>

  <rect x="784" y="364" width="320" height="132" rx="24" fill="#0F172A" stroke="#334155"/>
  <text x="814" y="406" fill="#F8FAFC" font-family="Arial, Helvetica, sans-serif" font-size="24" font-weight="700">Fast mobile CTA</text>
  <text x="814" y="442" fill="#94A3B8" font-family="Arial, Helvetica, sans-serif" font-size="20">Call, quote, or book</text>
  <text x="814" y="470" fill="#94A3B8" font-family="Arial, Helvetica, sans-serif" font-size="20">without extra friction</text>
  <rect x="980" y="388" width="88" height="42" rx="21" fill="url(#gold)"/>
  <text x="1024" y="415" text-anchor="middle" fill="#111827" font-family="Arial, Helvetica, sans-serif" font-size="16" font-weight="700">AUDIT</text>

  <rect x="850" y="118" width="226" height="162" rx="24" fill="#111827" stroke="#475569"/>
  <text x="880" y="160" fill="#94A3B8" font-family="Arial, Helvetica, sans-serif" font-size="20" font-weight="700">Checklist</text>
  <text x="880" y="198" fill="#F8FAFC" font-family="Arial, Helvetica, sans-serif" font-size="22">• Service clarity</text>
  <text x="880" y="230" fill="#F8FAFC" font-family="Arial, Helvetica, sans-serif" font-size="22">• Royal Oak relevance</text>
  <text x="880" y="262" fill="#F8FAFC" font-family="Arial, Helvetica, sans-serif" font-size="22">• Reviews near CTA</text>

  <text x="96" y="548" fill="#64748B" font-family="Arial, Helvetica, sans-serif" font-size="18">Original Macrolight Builder asset for blog use only</text>
</svg>
