<svg width="1200" height="630" viewBox="0 0 1200 630" fill="none" xmlns="http://www.w3.org/2000/svg">
  <rect width="1200" height="630" fill="#0B1120"/>
  <defs>
    <linearGradient id="rose" x1="120" y1="80" x2="1080" y2="550" gradientUnits="userSpaceOnUse">
      <stop stop-color="#F9A8D4"/>
      <stop offset="1" stop-color="#F59EB2"/>
    </linearGradient>
    <linearGradient id="panel" x1="160" y1="120" x2="1040" y2="520" gradientUnits="userSpaceOnUse">
      <stop stop-color="#111827"/>
      <stop offset="1" stop-color="#1F2937"/>
    </linearGradient>
  </defs>

  <circle cx="1015" cy="108" r="150" fill="#EC4899" fill-opacity="0.15"/>
  <circle cx="185" cy="520" r="170" fill="#38BDF8" fill-opacity="0.10"/>

  <rect x="66" y="54" width="1068" height="522" rx="32" fill="url(#panel)" stroke="#334155"/>

  <text x="100" y="132" fill="#E2E8F0" font-family="Arial, Helvetica, sans-serif" font-size="22" font-weight="700" letter-spacing="1.8">MACROLIGHT BUILDER</text>
  <text x="100" y="214" fill="white" font-family="Arial, Helvetica, sans-serif" font-size="54" font-weight="700">Med spa web design that books</text>
  <text x="100" y="276" fill="url(#rose)" font-family="Arial, Helvetica, sans-serif" font-size="54" font-weight="700">premium consultations with trust</text>
  <text x="100" y="332" fill="#CBD5E1" font-family="Arial, Helvetica, sans-serif" font-size="24">Built for treatment clarity, local visibility, review proof, and a smoother booking flow.</text>

  <rect x="100" y="384" width="318" height="122" rx="22" fill="#0F172A" stroke="#334155"/>
  <text x="128" y="425" fill="#F8FAFC" font-family="Arial, Helvetica, sans-serif" font-size="24" font-weight="700">Treatment-page intent</text>
  <text x="128" y="460" fill="#94A3B8" font-family="Arial, Helvetica, sans-serif" font-size="20">Separate Botox, filler, laser,</text>
  <text x="128" y="488" fill="#94A3B8" font-family="Arial, Helvetica, sans-serif" font-size="20">facial, and body pages</text>
  <circle cx="378" cy="422" r="18" fill="#22C55E"/>
  <path d="M370 422L376 428L387 416" stroke="#0F172A" stroke-width="4" stroke-linecap="round" stroke-linejoin="round"/>

  <rect x="441" y="384" width="318" height="122" rx="22" fill="#0F172A" stroke="#334155"/>
  <text x="469" y="425" fill="#F8FAFC" font-family="Arial, Helvetica, sans-serif" font-size="24" font-weight="700">Trust + booking flow</text>
  <text x="469" y="460" fill="#94A3B8" font-family="Arial, Helvetica, sans-serif" font-size="20">Reviews, provider proof, and</text>
  <text x="469" y="488" fill="#94A3B8" font-family="Arial, Helvetica, sans-serif" font-size="20">fast consultation CTAs</text>
  <circle cx="719" cy="422" r="18" fill="#22C55E"/>
  <path d="M711 422L717 428L728 416" stroke="#0F172A" stroke-width="4" stroke-linecap="round" stroke-linejoin="round"/>

  <rect x="782" y="384" width="318" height="122" rx="22" fill="#0F172A" stroke="#334155"/>
  <text x="810" y="425" fill="#F8FAFC" font-family="Arial, Helvetica, sans-serif" font-size="24" font-weight="700">Local med spa relevance</text>
  <text x="810" y="460" fill="#94A3B8" font-family="Arial, Helvetica, sans-serif" font-size="20">City coverage, answer-first</text>
  <text x="810" y="488" fill="#94A3B8" font-family="Arial, Helvetica, sans-serif" font-size="20">FAQs, and mobile clarity</text>
  <circle cx="1060" cy="422" r="18" fill="#22C55E"/>
  <path d="M1052 422L1058 428L1069 416" stroke="#0F172A" stroke-width="4" stroke-linecap="round" stroke-linejoin="round"/>

  <rect x="878" y="120" width="188" height="138" rx="24" fill="#111827" stroke="#475569"/>
  <text x="904" y="162" fill="#94A3B8" font-family="Arial, Helvetica, sans-serif" font-size="20" font-weight="700">Checklist</text>
  <text x="904" y="198" fill="#F8FAFC" font-family="Arial, Helvetica, sans-serif" font-size="22">• Trust proof</text>
  <text x="904" y="228" fill="#F8FAFC" font-family="Arial, Helvetica, sans-serif" font-size="22">• Booking CTA</text>
  <text x="904" y="258" fill="#F8FAFC" font-family="Arial, Helvetica, sans-serif" font-size="22">• Local intent</text>

  <text x="100" y="554" fill="#64748B" font-family="Arial, Helvetica, sans-serif" font-size="18">Original Macrolight Builder asset for blog use only</text>
</svg>
