<svg width="1200" height="630" viewBox="0 0 1200 630" fill="none" xmlns="http://www.w3.org/2000/svg" role="img" aria-labelledby="title desc">
  <title id="title">Web Design in Ferndale, MI cover graphic</title>
  <desc id="desc">Original Macrolight graphic showing Ferndale local web design elements including a city pin, service page cards, review stars, FAQ answers, and conversion calls to action.</desc>
  <rect width="1200" height="630" rx="32" fill="#0B1020"/>
  <rect x="28" y="28" width="1144" height="574" rx="28" fill="url(#bg)" stroke="#2B3558"/>
  <circle cx="1030" cy="108" r="92" fill="#7C3AED" fill-opacity="0.15"/>
  <circle cx="1110" cy="500" r="120" fill="#0EA5E9" fill-opacity="0.12"/>
  <circle cx="150" cy="520" r="88" fill="#10B981" fill-opacity="0.1"/>

  <text x="70" y="118" fill="#94A3B8" font-family="Inter, Arial, sans-serif" font-size="26" font-weight="700" letter-spacing="3">MACROLIGHT BUILDER</text>
  <text x="70" y="208" fill="white" font-family="Inter, Arial, sans-serif" font-size="62" font-weight="800">Web Design in Ferndale, MI</text>
  <text x="70" y="266" fill="#D6E1FF" font-family="Inter, Arial, sans-serif" font-size="34" font-weight="600">Turn local searches into qualified leads</text>

  <g opacity="0.98">
    <rect x="70" y="326" width="360" height="214" rx="24" fill="#11182D" stroke="#334155"/>
    <text x="102" y="372" fill="#F8FAFC" font-family="Inter, Arial, sans-serif" font-size="28" font-weight="700">Ferndale page essentials</text>
    <circle cx="112" cy="418" r="9" fill="#22C55E"/>
    <text x="136" y="426" fill="#CBD5E1" font-family="Inter, Arial, sans-serif" font-size="24">Service + city headline</text>
    <circle cx="112" cy="458" r="9" fill="#22C55E"/>
    <text x="136" y="466" fill="#CBD5E1" font-family="Inter, Arial, sans-serif" font-size="24">Visible reviews near CTA</text>
    <circle cx="112" cy="498" r="9" fill="#22C55E"/>
    <text x="136" y="506" fill="#CBD5E1" font-family="Inter, Arial, sans-serif" font-size="24">FAQ answers for buyers</text>
  </g>

  <g>
    <rect x="474" y="326" width="292" height="214" rx="24" fill="#0F172A" stroke="#3B82F6"/>
    <rect x="504" y="358" width="182" height="20" rx="10" fill="#1D4ED8" fill-opacity="0.7"/>
    <rect x="504" y="394" width="226" height="16" rx="8" fill="#334155"/>
    <rect x="504" y="422" width="198" height="16" rx="8" fill="#334155"/>
    <rect x="504" y="456" width="142" height="34" rx="17" fill="#22C55E"/>
    <text x="504" y="340" fill="#93C5FD" font-family="Inter, Arial, sans-serif" font-size="24" font-weight="700">Local service page</text>
    <text x="524" y="480" fill="#052E16" font-family="Inter, Arial, sans-serif" font-size="20" font-weight="800">Free SEO audit</text>
  </g>

  <g>
    <rect x="804" y="326" width="320" height="214" rx="24" fill="#11182D" stroke="#475569"/>
    <path d="M928 370C928 337.967 953.967 312 986 312C1018.03 312 1044 337.967 1044 370C1044 413 986 466 986 466C986 466 928 413 928 370Z" fill="#F97316"/>
    <circle cx="986" cy="370" r="22" fill="#FFF7ED"/>
    <text x="834" y="514" fill="#E2E8F0" font-family="Inter, Arial, sans-serif" font-size="24" font-weight="700">Ferndale • SEO • AEO • GEO</text>
    <g fill="#FACC15">
      <path d="M850 372L856.5 385H871L859 393.5L864 407L850 398L836 407L841 393.5L829 385H843.5L850 372Z"/>
      <path d="M886 372L892.5 385H907L895 393.5L900 407L886 398L872 407L877 393.5L865 385H879.5L886 372Z"/>
      <path d="M922 372L928.5 385H943L931 393.5L936 407L922 398L908 407L913 393.5L901 385H915.5L922 372Z"/>
    </g>
  </g>

  <defs>
    <linearGradient id="bg" x1="0" y1="0" x2="1200" y2="630" gradientUnits="userSpaceOnUse">
      <stop stop-color="#0F172A"/>
      <stop offset="1" stop-color="#111827"/>
    </linearGradient>
  </defs>
</svg>
